<svg id="eZCU8I537411" xmlns="http://www.w3.org/2000/svg" xmlns:xlink="http://www.w3.org/1999/xlink" viewBox="0 0 488.85 488.85" shape-rendering="geometricPrecision" text-rendering="geometricPrecision" project-id="639efc41c7854b4f9fea1b76f68b8ffc" export-id="54a8c8571ce34e679f784d46287abeca" cached="false"><defs><filter id="eZCU8I537412-filter" x="-150%" width="400%" y="-150%" height="400%"><feComponentTransfer id="eZCU8I537412-filter-contrast-0" result="result"><feFuncR id="eZCU8I537412-filter-contrast-0-R" type="linear" slope="0.3" intercept="0.35"/><feFuncG id="eZCU8I537412-filter-contrast-0-G" type="linear" slope="0.3" intercept="0.35"/><feFuncB id="eZCU8I537412-filter-contrast-0-B" type="linear" slope="0.3" intercept="0.35"/></feComponentTransfer></filter></defs><g transform="translate(0 0.000005)" filter="url(#eZCU8I537412-filter)"><path d="M244.425,98.725c-93.4,0-178.1,51.1-240.6,134.1-5.1,6.8-5.1,16.3,0,23.1c62.5,83.1,147.2,134.2,240.6,134.2s178.1-51.1,240.6-134.1c5.1-6.8,5.1-16.3,0-23.1-62.5-83.1-147.2-134.2-240.6-134.2Zm6.7,248.3c-62,3.9-113.2-47.2-109.3-109.3c3.2-51.2,44.7-92.7,95.9-95.9c62-3.9,113.2,47.2,109.3,109.3-3.3,51.1-44.8,92.6-95.9,95.9Zm-3.1-47.4c-33.4,2.1-61-25.4-58.8-58.8c1.7-27.6,24.1-49.9,51.7-51.7c33.4-2.1,61,25.4,58.8,58.8-1.8,27.7-24.2,50-51.7,51.7Z"/></g></svg>
