<svg id="eVSO7TmrL1t1" xmlns="http://www.w3.org/2000/svg" xmlns:xlink="http://www.w3.org/1999/xlink" viewBox="0 0 405 460" shape-rendering="geometricPrecision" text-rendering="geometricPrecision" project-id="601024507b534507b67a7c756a3fcd53" export-id="2eb3f56864fc400aa0d83471a9170de0" cached="false"><path d="M30.739986,364.364691l-.833787-208.44662L320.063893,10.005438l64.201558,45.858255-.833786,213.449337-159.253217,80.877288-58.365054,89.215152-51.694762-38.354178-22.512234,10.839224-60.866412-47.525825Z" transform="translate(-4.585825 5.677876)" fill="#942be1" stroke="#3f5787" stroke-width="0.92"/><path d="M39.911637,160.92079L41.57921,356.026826l63.367771-31.683886l5.002719,64.201559l67.536705-98.386806L315.89496,219.285842l-.000001-194.272251L39.911637,160.92079Z" transform="translate(-3.905806 5.677875)" fill="rgba(0,0,0,0.72)" stroke="#3f5787" stroke-width="0.92"/><path d="M81.5,55C63.18,62.28,57.28,68.18,50,86.5C42.72,68.18,36.82,62.28,18.5,55C36.82,47.72,42.72,41.82,50,23.5C57.28,41.82,63.18,47.72,81.5,55Z" transform="translate(270.844474 341.859711)" fill="#942be1"/><polygon points="0,-40.5 6.300321,-6.300321 40.5,0 6.300321,6.300321 0,40.5 -6.300321,6.300321 -40.5,0 -6.300321,-6.300321 0,-40.5" transform="translate(66.314933 55.416654)" fill="#942be1" stroke-width="0"/><g transform="translate(495.240309 0)"><path d="M235.224762,235.320198l-.316482-61.39766l22.470277-10.443931-.316483,19.938415c5.798348-1.576138,13.528202-15.726746,15.507656-28.166967l24.369174-12.026346c-2.042181,14.367871-13.822417,35.909772-26.26807,41.459244l-.632966,5.380207c13.322544-10.031988,26.234659.414767,30.065864,12.975794l-24.685657,12.975794c-3.845948-8.424905-12.618495-16.224702-18.039518-13.292277l-.316483,22.470278q-22.470278,10.127449-21.837312,10.127449Z" transform="translate(-499.146118 5.677872)" fill="#fff" stroke="#3f5787" stroke-width="0.92"/><path d="M183.954552,260.63882l-.632965-61.081176l22.470276-10.443932.632966,40.826278l20.254897-9.810966.316482,20.254898-43.041656,20.254898Z" transform="translate(-499.146114 5.677872)" fill="#fff" stroke="#3f5787" stroke-width="0.92"/><path d="M108.948134,297.350822l20.57138-70.892142l26.584554-13.60876l21.520829,51.586693-23.103244,11.39338-2.531863-6.013173-18.356002,8.545035-2.215381,9.810967-22.470273,9.178Z" transform="translate(-499.146112 5.677872)" fill="#fff" stroke="#3f5787" stroke-width="0.92"/><path d="M72.236131,315.706823q0-.316483,23.103243-11.39338v-41.142761l14.874691-7.595587v-19.621932L57.044958,261.588268l-.000001,20.254898l14.558208-7.595587q.632965,41.775727.632966,41.459244Z" transform="translate(-499.146117 5.677872)" fill="#fff" stroke="#3f5787" stroke-width="0.92"/><path d="M215.924883,140.643741q.291671,0-.29167-13.708515l31.208746-14.875197.291671,14.583527q-31.500418,14.000185-31.208747,14.000185Z" transform="translate(-499.146118 5.677872)" fill="#fff" stroke="#3f5787" stroke-width="0.92"/><path d="M150.24068,194.19445v-61.95082l21.700287-9.80013l1.400018,17.850237c6.220435-4.502847,13.302744-17.806547,14.700194-26.250348l23.450309-11.550154c-1.599951,14.848284-13.23132,35.365773-24.500324,39.900527l-1.050014,5.250069c11.585241-8.491324,25.440246,1.552236,30.100398,14.35019l-24.850329,12.250162c-3.848599-9.418394-12.678507-16.607556-17.850236-12.950171q-.700009,22.7503-.700009,22.400296t-22.400294,10.500142Z" transform="translate(-499.146115 5.677875)" fill="#fff" stroke="#3f5787" stroke-width="0.92"/><path d="M118.287566,210.114192l22.512235-10.839224-.483048-61.794208-22.862974,10.099447.833787,62.533985Z" transform="translate(-499.146118 5.677872)" fill="#fff" stroke="#3f5787" stroke-width="0.92"/><path d="M71.972744,232.537903l.346924-41.630868-14.917727,7.458864-.520386-19.774662l53.068148-26.842098.531594,20.250544-15.09119,7.11194-.520385,42.671639-22.896978,10.754641Z" transform="translate(-499.146117 5.677877)" fill="#fff" stroke-width="0.92"/></g><path d="M138.064549,261.271785l10.443932-5.380207-3.48131-18.988968-4.114277,2.215379-2.848345,22.153796Z" transform="translate(-3.90581 5.677876)" stroke="#3f5787" stroke-width="0.92"/></svg>
